<svg width="30" height="30" viewBox="0 0 30 30" fill="none" xmlns="http://www.w3.org/2000/svg">
<path d="M21.9537 1.25572L18.4821 1.25C14.5819 1.25 12.0614 3.90636 12.0614 8.01779V11.1382H8.5709C8.26927 11.1382 8.02502 11.3894 8.02502 11.6992V16.2203C8.02502 16.5302 8.26955 16.7811 8.5709 16.7811H12.0614V28.1893C12.0614 28.4991 12.3057 28.75 12.6073 28.75H17.1614C17.463 28.75 17.7073 28.4988 17.7073 28.1893V16.7811H21.7885C22.0901 16.7811 22.3344 16.5302 22.3344 16.2203L22.3361 11.6992C22.3361 11.5504 22.2784 11.408 22.1762 11.3027C22.074 11.1974 21.9347 11.1382 21.7899 11.1382H17.7073V8.49299C17.7073 7.22159 18.0022 6.57617 19.6145 6.57617L21.9531 6.57531C22.2545 6.57531 22.4987 6.32412 22.4987 6.01457V1.81646C22.4987 1.5072 22.2547 1.25629 21.9537 1.25572Z" fill="#083D93"/>
</svg>
