<svg xmlns="http://www.w3.org/2000/svg" xmlns:xlink="http://www.w3.org/1999/xlink" width="22.595" height="21.519" viewBox="0 0 22.595 21.519"><defs><style>.a{fill:#083d93;}.b{clip-path:url(#a);}</style><clipPath id="a"><path class="a" d="M17.751,21.519V13.751c0-1.952-.7-3.282-2.453-3.282a2.651,2.651,0,0,0-2.486,1.764,3.314,3.314,0,0,0-.159,1.177v8.109H7.81S7.874,8.363,7.81,7h4.844V9.056a4.812,4.812,0,0,1,4.366-2.4c3.186,0,5.576,2.076,5.576,6.536v8.325Zm-17.465,0V7H5.13v14.52Zm2.391-16.5A2.516,2.516,0,1,1,2.74,0a2.517,2.517,0,1,1-.032,5.017Z" transform="translate(0)"/></clipPath></defs><g class="b" transform="translate(0 0)"><g transform="translate(-1.412 -1.409)"><rect class="a" width="25.113" height="25.113" rx="4"/></g></g></svg>