<svg xmlns="http://www.w3.org/2000/svg" width="22.595" height="22.595" viewBox="0 0 22.595 22.595"><defs><style>.a{fill:#083d93;}</style></defs><path class="a" d="M16.359,0H6.235A6.242,6.242,0,0,0,0,6.235V16.36a6.242,6.242,0,0,0,6.235,6.235H16.359a6.242,6.242,0,0,0,6.236-6.235V6.235A6.242,6.242,0,0,0,16.359,0ZM20.59,16.36A4.235,4.235,0,0,1,16.36,20.59H6.235A4.235,4.235,0,0,1,2,16.36V6.235A4.235,4.235,0,0,1,6.235,2H16.359A4.236,4.236,0,0,1,20.59,6.235V16.36Z"/><path class="a" d="M46.79,40.97a5.822,5.822,0,1,0,5.822,5.822A5.829,5.829,0,0,0,46.79,40.97Zm0,9.639a3.817,3.817,0,1,1,3.817-3.817A3.822,3.822,0,0,1,46.79,50.609Z" transform="translate(-35.493 -35.494)"/><path class="a" d="M120.391,28.251a1.469,1.469,0,1,0,1.04.43A1.476,1.476,0,0,0,120.391,28.251Z" transform="translate(-103.027 -24.475)"/></svg>