<svg width="30" height="30" viewBox="0 0 30 30" fill="none" xmlns="http://www.w3.org/2000/svg">
<path d="M28.125 7.21566C27.1589 7.62558 26.1222 7.90358 25.033 8.0277C26.1451 7.39 26.9965 6.37853 27.4 5.17699C26.3567 5.76753 25.2052 6.19635 23.9782 6.4288C22.9957 5.42517 21.5981 4.80005 20.048 4.80005C17.0741 4.80005 14.6628 7.10888 14.6628 9.95486C14.6628 10.3585 14.7104 10.7527 14.8023 11.1297C10.3275 10.9145 6.3596 8.8617 3.70392 5.7424C3.2397 6.5026 2.97561 7.3884 2.97561 8.33396C2.97561 10.1229 3.92701 11.7014 5.3705 12.6249C4.48799 12.5967 3.65799 12.3642 2.93135 11.9778V12.0422C2.93135 14.5395 4.7882 16.6237 7.2503 17.0981C6.7992 17.2143 6.32352 17.2787 5.83142 17.2787C5.48369 17.2787 5.14742 17.2457 4.81771 17.1829C5.50334 19.2326 7.49144 20.7231 9.84695 20.7639C8.00486 22.1461 5.68216 22.9676 3.15936 22.9676C2.7247 22.9676 2.29654 22.9424 1.875 22.8969C4.25839 24.3623 7.08795 25.2167 10.1291 25.2167C20.035 25.2167 25.4497 17.3604 25.4497 10.547L25.4316 9.8795C26.4896 9.15696 27.4049 8.24915 28.125 7.21566Z" fill="#083D93"/>
</svg>
