<svg xmlns="http://www.w3.org/2000/svg" width="22.595" height="17.215" viewBox="0 0 22.595 17.215"><defs><style>.a{fill:#083d93;}</style></defs><path class="a" d="M11.3,17.215a55.483,55.483,0,0,1-7.909-.573C1.586,16.38.6,15.286.282,13.2A38.453,38.453,0,0,1,0,8.608,38.482,38.482,0,0,1,.282,4.017,3.408,3.408,0,0,1,3.389.573a54.83,54.83,0,0,1,15.816,0C21.009.836,22,1.93,22.312,4.017a38.483,38.483,0,0,1,.282,4.591,38.453,38.453,0,0,1-.282,4.59,3.624,3.624,0,0,1-3.107,3.444A55.47,55.47,0,0,1,11.3,17.215ZM8.474,4.3v8.608l7.061-4.3L8.474,4.3Z" transform="translate(0 0)"/></svg>